<?xml version="1.0" standalone="no"?>
<!DOCTYPE svg PUBLIC "-//W3C//DTD SVG 20010904//EN"
 "http://www.w3.org/TR/2001/REC-SVG-20010904/DTD/svg10.dtd">
<svg version="1.0" xmlns="http://www.w3.org/2000/svg"
 width="1168.000000pt" height="880.000000pt" viewBox="0 0 1168.000000 880.000000"
 preserveAspectRatio="xMidYMid meet">

<g transform="translate(0.000000,880.000000) scale(0.100000,-0.100000)"
fill="#000000" stroke="none">
<path d="M8786 7968 c-137 -17 -183 -129 -73 -178 23 -10 94 -26 157 -35 125
-18 208 -48 320 -114 152 -90 238 -244 325 -576 67 -252 72 -299 115 -1020 39
-643 61 -811 139 -1029 46 -129 148 -250 277 -325 33 -19 85 -54 116 -77 31
-23 77 -50 102 -60 25 -11 44 -23 43 -29 -2 -5 -39 -25 -83 -43 -139 -58 -283
-186 -346 -307 -69 -133 -139 -401 -167 -640 -6 -49 -20 -204 -31 -342 -11
-139 -27 -313 -35 -385 -9 -73 -20 -266 -25 -428 -10 -321 -23 -415 -79 -570
-56 -153 -198 -368 -330 -501 -69 -70 -91 -84 -231 -153 -85 -42 -163 -86
-172 -98 -39 -45 -10 -176 49 -228 34 -30 40 -32 89 -27 107 11 304 122 438
248 173 162 323 470 431 884 69 264 70 281 66 595 -11 769 -9 813 46 1060 52
237 119 392 212 493 70 76 131 117 323 216 153 80 156 81 211 75 54 -6 55 -6
100 35 44 41 77 107 77 153 0 26 -100 138 -122 138 -10 0 -38 5 -63 12 -34 9
-55 9 -86 1 -38 -10 -50 -8 -157 35 -136 53 -308 162 -352 224 -60 83 -159
409 -209 687 -45 248 -52 377 -45 811 7 443 0 544 -50 743 -42 165 -176 416
-275 515 -160 160 -478 268 -705 240z"/>
<path d="M2275 7911 c-182 -95 -279 -173 -375 -301 -127 -171 -197 -348 -271
-685 -78 -353 -90 -496 -66 -765 28 -306 29 -333 17 -460 -17 -186 -67 -544
-90 -637 -48 -200 -110 -255 -360 -323 -144 -39 -230 -78 -259 -118 -52 -74
-65 -172 -31 -228 21 -33 36 -41 170 -85 36 -12 121 -48 189 -81 99 -47 135
-71 180 -116 112 -113 214 -309 257 -492 24 -105 31 -764 13 -1160 -8 -157
-14 -393 -14 -525 1 -214 3 -249 23 -329 54 -216 195 -422 402 -589 101 -81
173 -113 285 -127 50 -6 132 -18 183 -27 163 -27 274 -7 307 57 34 66 13 125
-62 175 -55 37 -56 37 -111 26 -179 -36 -354 20 -492 158 -159 158 -205 266
-254 591 -60 396 -69 513 -65 830 9 718 0 897 -62 1140 -41 162 -119 319 -205
410 -53 56 -83 78 -157 114 -51 24 -111 50 -134 57 -24 7 -43 15 -43 19 0 4
15 13 33 20 168 62 261 118 309 184 108 148 151 343 150 681 0 198 -6 270 -58
715 -33 286 -30 451 10 643 53 253 140 458 260 617 83 111 254 276 348 338 66
43 106 62 222 105 37 14 66 62 66 110 0 66 -66 107 -172 107 -38 0 -68 -10
-143 -49z"/>
<path d="M3960 6880 c-118 -13 -278 -15 -510 -6 -152 6 -236 5 -288 -3 -153
-24 -153 -25 -143 -447 11 -460 2 -445 255 -426 88 7 262 12 386 12 239 0 554
17 940 51 370 32 641 35 910 10 411 -38 513 -44 735 -43 121 0 285 5 365 11
382 29 1375 42 1540 21 153 -20 392 -31 427 -19 64 21 66 38 67 619 0 109 -20
147 -97 184 -96 46 -134 48 -687 39 -283 -4 -634 -5 -780 -2 -474 12 -1048 9
-1375 -6 -362 -17 -969 -19 -1245 -5 -333 17 -424 19 -500 10z m1730 -185
c219 -13 365 -15 715 -11 242 3 510 9 596 12 108 4 217 1 360 -11 172 -14 271
-16 635 -10 l432 8 15 -24 c14 -20 15 -35 6 -94 -6 -39 -12 -126 -14 -195 -2
-69 -4 -128 -4 -132 -3 -25 -47 -27 -197 -13 -203 19 -474 19 -655 -1 -187
-20 -370 -20 -654 0 -305 22 -507 23 -1280 8 -1187 -22 -1311 -23 -1518 -10
-234 14 -741 -1 -840 -25 -44 -11 -60 -12 -63 -3 -2 6 -3 104 -2 216 l3 205
140 12 c77 7 205 19 285 28 249 26 349 34 601 45 134 6 273 12 309 14 165 8
880 -3 1130 -19z"/>
<path d="M5695 5346 c-273 -33 -436 -87 -607 -199 -219 -145 -349 -358 -428
-702 -12 -49 -29 -117 -39 -150 -55 -179 -24 -439 74 -635 142 -283 479 -517
870 -605 110 -25 397 -31 520 -11 186 31 367 108 487 208 73 61 141 159 217
313 166 336 205 605 131 896 -72 280 -256 519 -554 720 -230 155 -401 197
-671 165z m151 -240 c38 -19 94 -57 125 -85 61 -54 80 -99 114 -259 22 -106
20 -138 -9 -157 -28 -19 -220 -34 -431 -35 -174 0 -190 7 -182 79 14 116 113
342 186 424 71 78 97 83 197 33z m-575 -96 c24 -14 24 -41 -1 -138 -11 -42
-24 -119 -29 -171 -14 -133 -11 -131 -184 -131 -187 0 -205 16 -153 132 51
115 180 244 296 297 53 24 47 23 71 11z m1052 -16 c68 -34 210 -179 259 -264
21 -35 34 -68 30 -72 -11 -11 -272 -50 -289 -44 -6 3 -14 26 -18 53 -17 131
-47 326 -52 338 -8 22 11 18 70 -11z m-212 -591 c17 -41 4 -513 -14 -530 -7
-8 -65 -22 -128 -33 -135 -24 -505 -48 -519 -34 -21 22 -42 238 -37 389 2 83
8 157 11 166 5 12 59 20 284 41 152 14 303 26 335 27 54 1 58 -1 68 -26z m546
6 c65 -41 81 -110 64 -292 -13 -131 -26 -169 -68 -185 -46 -17 -204 -45 -261
-46 -90 -2 -90 0 -85 271 4 178 8 231 19 243 10 10 44 17 107 21 177 11 188
10 224 -12z m-1436 -67 c10 -13 23 -40 28 -60 16 -60 33 -440 21 -462 -13 -24
-59 -36 -180 -46 -175 -14 -188 -13 -220 23 -16 18 -39 63 -50 100 -43 134
-37 423 10 456 13 9 68 12 195 12 173 0 177 0 196 -23z m1372 -654 c16 -24
-51 -153 -114 -222 -82 -90 -270 -216 -322 -216 -34 0 -29 40 16 138 25 53 55
129 66 167 37 123 35 121 151 140 104 18 190 15 203 -7z m-558 -31 c15 -11 17
-22 11 -55 -14 -91 -120 -276 -178 -313 -60 -37 -174 -7 -233 63 -29 34 -109
193 -120 239 l-6 26 83 7 c46 4 146 15 223 25 174 24 197 24 220 8z m-752 -79
c13 -13 36 -54 50 -93 15 -38 40 -90 57 -115 33 -50 39 -87 14 -97 -22 -8
-186 75 -265 135 -82 63 -141 130 -137 157 3 23 46 31 180 33 67 2 80 -1 101
-20z"/>
</g>
</svg>
